<?xml version="1.0" encoding="UTF-8" standalone="no"?>
<!DOCTYPE svg PUBLIC "-//W3C//DTD SVG 1.1//EN" "http://www.w3.org/Graphics/SVG/1.1/DTD/svg11.dtd">
<svg version="1.1" xmlns="http://www.w3.org/2000/svg" xmlns:xlink="http://www.w3.org/1999/xlink" preserveAspectRatio="xMidYMid meet" viewBox="0 0 327.08 279.38" width="50" height="50"><defs><path d="M250.37 95.5C247.06 93.92 246.64 93.12 247.6 89.51C249.52 82.31 251.52 75.15 253.46 67.96C254 66.03 254.46 64.07 255.03 61.76C246.88 63.45 239.24 65.03 231.6 66.65C226.94 67.63 225.71 66.9 224.38 62.28C223.52 59.31 222.67 56.34 221.73 53.01C220.77 54.04 220.11 54.74 219.47 55.45C213.64 61.96 207.83 68.46 202.01 74.97C200.4 76.78 198.56 78.65 195.99 77.39C193.55 76.18 194.16 73.67 194.3 71.48C194.3 71.36 194.33 71.15 194.35 71.02C196.38 60.34 198.42 49.65 200.43 38.97C201.28 34.44 202.1 29.9 203.03 24.84C200.61 26.08 198.8 27.02 196.98 27.96C195.06 28.96 193.18 29.99 191.22 30.92C186.81 33.03 184.66 32.34 182.35 28.05C177.84 19.68 173.36 11.31 168.86 2.93C168.38 2.04 167.83 1.17 167.12 0C166.4 1.23 165.91 2.04 165.44 2.9C161.09 11.02 156.73 19.13 152.4 27.25C149.5 32.66 147.63 33.23 142.07 30.4C138.62 28.64 135.19 26.84 131.24 24.82C133.39 36.28 135.47 47.13 137.48 57.99C138.42 63.09 139.44 68.2 140.02 73.33C140.16 74.65 139.12 76.89 138.05 77.33C136.89 77.81 135.03 76.8 133.57 76.2C132.91 75.93 132.47 75.11 131.95 74.52C126.14 68.02 120.31 61.51 114.51 54.97C113.96 54.35 113.71 53.49 113.32 52.73C111.52 56.66 110.6 59.86 109.66 63.04C108.57 66.65 107.04 67.54 103.31 66.77C100.24 66.13 97.2 65.44 94.12 64.8C89.28 63.8 84.45 62.83 79.33 61.78C79.58 62.92 79.7 63.57 79.88 64.23C82.12 72.44 84.38 80.66 86.58 88.89C87.74 93.24 87.4 93.88 83.44 95.75C80.84 96.98 78.24 98.2 75.42 99.54C76.11 100.14 76.47 100.48 76.84 100.78C88.57 110.31 100.29 119.82 112 129.35C111.09 130.18 103.76 136.82 102.85 137.65C126.69 145.03 140.04 155.52 148.45 167.45C148.45 167.45 163.51 139.43 163.92 137.8C168.08 121.16 146.21 119.08 130.26 96.53C158.72 116.52 192.63 83.45 194.08 82.03C192.8 83.48 167.68 112.96 182.87 135.56C194.64 153.07 198.17 162.65 199.42 165.53C208.66 155.15 217.36 151.41 233.2 142.29C231.6 141.41 218.83 134.37 217.23 133.49C230.42 122.79 243.6 112.07 256.79 101.37C257.43 100.84 258.03 100.27 258.85 99.54C255.84 98.12 253.11 96.82 250.37 95.5ZM145.28 89C145.28 83.96 149.36 79.89 154.39 79.89C159.42 79.89 163.49 83.96 163.49 89C163.49 94.03 159.42 98.1 154.39 98.1C149.36 98.1 145.28 94.03 145.28 89Z" id="b1UdfnL2ID"></path><path d="M210.51 164.2C223.33 152.91 239.22 149.94 243.29 146.28C243.74 145.88 244.43 146.03 244.68 146.56C248.91 155.59 229.96 162.58 229.37 165.4C228.48 169.67 252.59 160.73 257.28 146.9C260.59 137.17 262.33 130.08 265.66 129.32C266.35 129.16 267.04 129.65 267.1 130.36C269.3 159.34 257.32 175.96 233.53 181.97C209.48 188.05 203.6 201.64 203.6 201.64C204.98 194.15 196.68 176.37 210.51 164.2Z" id="bs705OPXe"></path><path d="M135.1 163.2C122.58 151.57 106.78 148.18 102.81 144.41C102.39 144 101.68 144.12 101.41 144.66C96.95 153.56 115.68 161.07 116.2 163.89C116.98 168.18 93.11 158.6 88.79 144.64C85.75 134.84 84.18 127.7 80.88 126.84C80.18 126.67 79.49 127.13 79.42 127.86C76.43 156.76 87.97 173.69 111.6 180.36C135.51 187.08 141.02 200.82 141.02 200.82C139.83 193.29 148.59 175.73 135.1 163.2Z" id="a4NDLcMLaP"></path><path d="M12.79 216.23C8.7 216.23 6.72 217.94 6.72 220.12C6.72 222.67 9.73 223.38 13.25 223.8C19.35 224.55 25.04 226.15 25.04 233.12C25.04 239.64 19.26 242.44 12.75 242.44C6.78 242.44 2.17 240.6 0 235.25C0.46 235.02 4.15 233.11 4.61 232.87C5.91 236.09 9.28 237.51 12.84 237.51C16.31 237.51 19.58 236.3 19.58 233.12C19.58 230.36 16.7 229.23 12.8 228.82C6.83 228.11 1.3 226.52 1.3 219.95C1.3 213.92 7.24 211.47 12.63 211.41C17.18 211.41 21.91 212.71 24.13 217.23C23.83 217.38 22.37 218.13 19.72 219.48C17.21 217.32 14.9 216.23 12.79 216.23Z" id="b1XWxZgjMd"></path><path d="M28.45 215.25C28.45 211.29 34.48 211.29 34.48 215.25C34.48 219.22 28.45 219.22 28.45 215.25ZM28.93 241.67L34.03 241.67L34.03 220.98L28.93 220.98L28.93 241.67Z" id="f8czeGZi4m"></path><path d="M53.8 230.88C53.8 227.75 52.09 225.37 48.82 225.37C45.69 225.37 43.56 228 43.56 231.15C43.56 231.85 43.56 235.36 43.56 241.69L38.49 241.69L38.49 221.03L43.04 221.03C43.25 222.72 43.36 223.65 43.38 223.84C45.48 221.8 47.56 220.75 50.16 220.75C55.01 220.75 58.88 224.39 58.88 230.86C58.88 231.58 58.88 235.19 58.88 241.69L53.8 241.69C53.8 235.2 53.8 231.6 53.8 230.88Z" id="f4rgAzU2d"></path><path d="M84.52 221.07L84.52 241.67L79.72 241.67C79.57 239.87 79.49 238.87 79.47 238.67C78.3 241.08 75.08 242.26 72.79 242.31C66.69 242.35 62.17 238.6 62.17 231.36C62.17 224.25 66.9 220.53 72.91 220.57C75.67 220.57 78.3 221.87 79.47 223.91C79.48 223.72 79.54 222.77 79.63 221.07L84.52 221.07ZM73.36 237.62C81.37 237.62 81.37 225.12 73.36 225.12C69.98 225.12 67.26 227.41 67.26 231.34C67.26 235.27 69.98 237.62 73.36 237.62Z" id="atYiI27rs"></path><path d="M88.36 215.25C88.36 211.29 94.39 211.29 94.39 215.25C94.39 219.22 88.36 219.22 88.36 215.25ZM88.82 241.67L93.92 241.67L93.92 220.98L88.82 220.98L88.82 241.67Z" id="a8ADZaixWq"></path><path d="M107.35 212.44L128.38 212.44L128.38 217.76L112.88 217.76L112.88 225.74L127.54 225.74L127.54 230.84L112.88 230.84L112.88 241.67L107.35 241.67L107.35 212.44Z" id="c4avXRE2ia"></path><path d="M141.53 242.13C134.85 242.13 130.83 237.33 130.83 231.4C130.83 225.49 134.92 220.66 141.5 220.66C148.08 220.66 152.27 225.49 152.27 231.4C152.27 237.33 148.22 242.13 141.53 242.13ZM141.53 237.46C145.25 237.46 147.13 234.52 147.13 231.4C147.13 228.3 144.96 225.3 141.53 225.3C137.85 225.28 135.93 228.3 135.93 231.4C135.93 234.52 137.82 237.46 141.53 237.46Z" id="aRHfkYaDG"></path><path d="M161.02 231.86C161.02 234.99 162.72 237.37 166 237.37C169.12 237.37 171.26 234.74 171.26 231.59C171.26 230.89 171.26 227.37 171.26 221.05L176.32 221.05L176.32 241.71L171.77 241.71C171.57 240.02 171.46 239.09 171.44 238.9C169.3 241 167.35 241.99 164.45 241.99C159.52 241.99 155.92 238.28 155.92 231.88C155.92 231.15 155.92 227.54 155.92 221.05L161.02 221.05C161.02 227.54 161.02 231.14 161.02 231.86Z" id="b1g4kEt9nZ"></path><path d="M196 230.88C196 227.75 194.3 225.37 191.03 225.37C187.9 225.37 185.76 228 185.76 231.15C185.76 231.85 185.76 235.36 185.76 241.69L180.7 241.69L180.7 221.03L185.25 221.03C185.45 222.72 185.56 223.65 185.59 223.84C187.68 221.8 189.76 220.75 192.36 220.75C197.21 220.75 201.09 224.39 201.09 230.86C201.09 231.58 201.09 235.19 201.09 241.69L196 241.69C196 235.2 196 231.6 196 230.88Z" id="b3XgtJBuMU"></path><path d="M226.9 241.69L222.14 241.69C221.94 239.98 221.82 239.03 221.8 238.84C220.22 241.32 217.66 242.15 215.15 242.15C209.09 242.15 204.54 238.13 204.54 231.36C204.54 224.25 209.02 220.57 215.03 220.57C217.2 220.57 220.59 221.74 221.8 223.88C221.8 223.11 221.8 219.31 221.8 212.46L226.9 212.46L226.9 241.69ZM215.47 237.4C218.69 237.4 221.44 235.06 221.44 231.34C221.44 227.75 218.69 225.32 215.47 225.32C212.22 225.33 209.62 227.63 209.62 231.34C209.62 234.93 212.22 237.4 215.47 237.4Z" id="a6kIMRjkXD"></path><path d="M252.56 221.07L252.56 241.67L247.76 241.67C247.61 239.87 247.52 238.87 247.51 238.67C246.33 241.08 243.12 242.26 240.82 242.31C234.72 242.35 230.21 238.6 230.21 231.36C230.21 224.25 234.94 220.53 240.95 220.57C243.7 220.57 246.33 221.87 247.51 223.91C247.52 223.72 247.57 222.77 247.67 221.07L252.56 221.07ZM241.39 237.62C249.41 237.62 249.41 225.12 241.39 225.12C238.01 225.12 235.29 227.41 235.29 231.34C235.29 235.27 238.01 237.62 241.39 237.62Z" id="avovCge9r"></path><path d="M263.17 221.1L268.86 221.1L268.86 225.49L263.13 225.49C263.13 230.84 263.13 233.81 263.13 234.4C263.13 236.37 264.22 237.33 265.8 237.33C266.6 237.33 267.51 237.08 268.27 236.71C268.41 237.15 269.55 240.63 269.69 241.07C268.24 241.65 267.03 241.9 265.48 241.94C261 242.1 258.08 239.56 258.08 234.42C258.08 233.82 258.08 230.86 258.08 225.51L254.24 225.51L254.24 221.12L258.08 221.12L258.08 215.8L263.17 215.25L263.17 221.1Z" id="gYRnYAeCF"></path><path d="M272.2 215.25C272.2 211.29 278.23 211.29 278.23 215.25C278.23 219.22 272.2 219.22 272.2 215.25ZM272.66 241.67L277.76 241.67L277.76 220.98L272.66 220.98L272.66 241.67Z" id="b20ikSiUWo"></path><path d="M292.57 242.13C285.89 242.13 281.87 237.33 281.87 231.4C281.87 225.49 285.96 220.66 292.54 220.66C299.12 220.66 303.31 225.49 303.31 231.4C303.31 237.33 299.26 242.13 292.57 242.13ZM292.56 237.46C296.27 237.46 298.16 234.52 298.16 231.4C298.16 228.3 295.99 225.3 292.56 225.3C288.88 225.28 286.96 228.3 286.96 231.4C286.96 234.52 288.84 237.46 292.56 237.46Z" id="cilKCO9zl"></path><path d="M322 230.88C322 227.75 320.29 225.37 317.02 225.37C313.89 225.37 311.76 228 311.76 231.15C311.76 231.85 311.76 235.36 311.76 241.69L306.69 241.69L306.69 221.03L311.24 221.03C311.44 222.72 311.56 223.65 311.58 223.84C313.68 221.8 315.76 220.75 318.35 220.75C323.2 220.75 327.08 224.39 327.08 230.86C327.08 231.58 327.08 235.19 327.08 241.69L322 241.69C322 235.2 322 231.6 322 230.88Z" id="a5KTwMvpy"></path><path d="M103.42 279.38C92.56 279.38 87.95 271.89 87.92 264.28C87.88 256.64 92.84 248.85 103.42 248.85C107.38 248.85 111.15 250.36 114.16 253.33C113.79 253.69 110.84 256.53 110.48 256.89C108.56 255 105.96 254.13 103.42 254.13C96.36 254.13 93.3 259.4 93.34 264.28C93.37 269.14 96.18 274.19 103.42 274.19C105.96 274.19 108.86 273.14 110.78 271.22C111.03 271.47 112.28 272.74 114.53 275.02C109.93 277.93 106.23 279.38 103.42 279.38Z" id="a2piwnz70j"></path><path d="M137.6 258.08L137.6 278.68L132.8 278.68C132.66 276.88 132.57 275.88 132.56 275.68C131.38 278.1 128.16 279.27 125.87 279.32C119.77 279.36 115.26 275.61 115.26 268.37C115.26 261.26 119.99 257.55 126 257.58C128.75 257.58 131.38 258.88 132.56 260.92C132.57 260.73 132.62 259.79 132.72 258.08L137.6 258.08ZM126.44 274.65C134.46 274.65 134.46 262.15 126.44 262.15C123.06 262.13 120.34 264.44 120.34 268.37C120.34 272.3 123.06 274.65 126.44 274.65Z" id="aur4DuNAV"></path><path d="M157.09 267.91C157.09 264.78 155.38 262.4 152.11 262.4C148.98 262.4 146.85 265.03 146.85 268.18C146.85 268.88 146.85 272.39 146.85 278.72L141.78 278.72L141.78 258.06L146.33 258.06C146.54 259.75 146.65 260.68 146.67 260.87C148.77 258.83 150.85 257.78 153.44 257.78C158.3 257.78 162.17 261.42 162.17 267.89C162.17 268.62 162.17 272.22 162.17 278.72L157.09 278.72C157.09 272.23 157.09 268.63 157.09 267.91Z" id="a3A6XPkLPu"></path><path d="M187.81 258.08L187.81 278.68L183.01 278.68C182.86 276.88 182.78 275.88 182.76 275.68C181.59 278.1 178.37 279.27 176.08 279.32C169.98 279.36 165.46 275.61 165.46 268.37C165.46 261.26 170.19 257.55 176.2 257.58C178.96 257.58 181.59 258.88 182.76 260.92C182.77 260.73 182.82 259.79 182.92 258.08L187.81 258.08ZM176.64 274.65C184.66 274.65 184.66 262.15 176.64 262.15C173.27 262.13 170.55 264.44 170.55 268.37C170.55 272.3 173.27 274.65 176.64 274.65Z" id="lCrNQehN7"></path><path d="M213.52 278.7L208.75 278.7C208.55 277 208.44 276.05 208.41 275.86C206.83 278.33 204.27 279.16 201.76 279.16C195.7 279.16 191.15 275.15 191.15 268.37C191.15 261.26 195.63 257.58 201.64 257.58C203.81 257.58 207.2 258.76 208.41 260.89C208.41 260.13 208.41 256.32 208.41 249.48L213.52 249.48L213.52 278.7ZM202.1 274.44C205.32 274.44 208.08 272.09 208.08 268.37C208.08 264.78 205.32 262.35 202.1 262.35C198.85 262.35 196.25 264.64 196.25 268.37C196.25 271.96 198.85 274.44 202.1 274.44Z" id="e8archAvE"></path><path d="M239.19 258.08L239.19 278.68L234.39 278.68C234.24 276.88 234.15 275.88 234.14 275.68C232.96 278.1 229.75 279.27 227.45 279.32C221.36 279.36 216.84 275.61 216.84 268.37C216.84 261.26 221.57 257.55 227.58 257.58C230.33 257.58 232.96 258.88 234.14 260.92C234.15 260.73 234.2 259.79 234.3 258.08L239.19 258.08ZM228.02 274.65C236.04 274.65 236.04 262.15 228.02 262.15C224.63 262.13 221.92 264.44 221.92 268.37C221.92 272.3 224.64 274.65 228.02 274.65Z" id="b3PnPqExPj"></path></defs><g><g><g><use xlink:href="#b1UdfnL2ID" opacity="1" fill="#ff0000" fill-opacity="1"></use><g><use xlink:href="#b1UdfnL2ID" opacity="1" fill-opacity="0" stroke="#000000" stroke-width="1" stroke-opacity="0"></use></g></g><g><use xlink:href="#bs705OPXe" opacity="1" fill="#000000" fill-opacity="1"></use><g><use xlink:href="#bs705OPXe" opacity="1" fill-opacity="0" stroke="#000000" stroke-width="1" stroke-opacity="0"></use></g></g><g><use xlink:href="#a4NDLcMLaP" opacity="1" fill="#000000" fill-opacity="1"></use><g><use xlink:href="#a4NDLcMLaP" opacity="1" fill-opacity="0" stroke="#000000" stroke-width="1" stroke-opacity="0"></use></g></g><g><use xlink:href="#b1XWxZgjMd" opacity="1" fill="#000000" fill-opacity="1"></use><g><use xlink:href="#b1XWxZgjMd" opacity="1" fill-opacity="0" stroke="#000000" stroke-width="1" stroke-opacity="0"></use></g></g><g><use xlink:href="#f8czeGZi4m" opacity="1" fill="#000000" fill-opacity="1"></use><g><use xlink:href="#f8czeGZi4m" opacity="1" fill-opacity="0" stroke="#000000" stroke-width="1" stroke-opacity="0"></use></g></g><g><use xlink:href="#f4rgAzU2d" opacity="1" fill="#000000" fill-opacity="1"></use><g><use xlink:href="#f4rgAzU2d" opacity="1" fill-opacity="0" stroke="#000000" stroke-width="1" stroke-opacity="0"></use></g></g><g><use xlink:href="#atYiI27rs" opacity="1" fill="#000000" fill-opacity="1"></use><g><use xlink:href="#atYiI27rs" opacity="1" fill-opacity="0" stroke="#000000" stroke-width="1" stroke-opacity="0"></use></g></g><g><use xlink:href="#a8ADZaixWq" opacity="1" fill="#000000" fill-opacity="1"></use><g><use xlink:href="#a8ADZaixWq" opacity="1" fill-opacity="0" stroke="#000000" stroke-width="1" stroke-opacity="0"></use></g></g><g><use xlink:href="#c4avXRE2ia" opacity="1" fill="#000000" fill-opacity="1"></use><g><use xlink:href="#c4avXRE2ia" opacity="1" fill-opacity="0" stroke="#000000" stroke-width="1" stroke-opacity="0"></use></g></g><g><use xlink:href="#aRHfkYaDG" opacity="1" fill="#000000" fill-opacity="1"></use><g><use xlink:href="#aRHfkYaDG" opacity="1" fill-opacity="0" stroke="#000000" stroke-width="1" stroke-opacity="0"></use></g></g><g><use xlink:href="#b1g4kEt9nZ" opacity="1" fill="#000000" fill-opacity="1"></use><g><use xlink:href="#b1g4kEt9nZ" opacity="1" fill-opacity="0" stroke="#000000" stroke-width="1" stroke-opacity="0"></use></g></g><g><use xlink:href="#b3XgtJBuMU" opacity="1" fill="#000000" fill-opacity="1"></use><g><use xlink:href="#b3XgtJBuMU" opacity="1" fill-opacity="0" stroke="#000000" stroke-width="1" stroke-opacity="0"></use></g></g><g><use xlink:href="#a6kIMRjkXD" opacity="1" fill="#000000" fill-opacity="1"></use><g><use xlink:href="#a6kIMRjkXD" opacity="1" fill-opacity="0" stroke="#000000" stroke-width="1" stroke-opacity="0"></use></g></g><g><use xlink:href="#avovCge9r" opacity="1" fill="#000000" fill-opacity="1"></use><g><use xlink:href="#avovCge9r" opacity="1" fill-opacity="0" stroke="#000000" stroke-width="1" stroke-opacity="0"></use></g></g><g><use xlink:href="#gYRnYAeCF" opacity="1" fill="#000000" fill-opacity="1"></use><g><use xlink:href="#gYRnYAeCF" opacity="1" fill-opacity="0" stroke="#000000" stroke-width="1" stroke-opacity="0"></use></g></g><g><use xlink:href="#b20ikSiUWo" opacity="1" fill="#000000" fill-opacity="1"></use><g><use xlink:href="#b20ikSiUWo" opacity="1" fill-opacity="0" stroke="#000000" stroke-width="1" stroke-opacity="0"></use></g></g><g><use xlink:href="#cilKCO9zl" opacity="1" fill="#000000" fill-opacity="1"></use><g><use xlink:href="#cilKCO9zl" opacity="1" fill-opacity="0" stroke="#000000" stroke-width="1" stroke-opacity="0"></use></g></g><g><use xlink:href="#a5KTwMvpy" opacity="1" fill="#000000" fill-opacity="1"></use><g><use xlink:href="#a5KTwMvpy" opacity="1" fill-opacity="0" stroke="#000000" stroke-width="1" stroke-opacity="0"></use></g></g><g><use xlink:href="#a2piwnz70j" opacity="1" fill="#ff0000" fill-opacity="1"></use><g><use xlink:href="#a2piwnz70j" opacity="1" fill-opacity="0" stroke="#000000" stroke-width="1" stroke-opacity="0"></use></g></g><g><use xlink:href="#aur4DuNAV" opacity="1" fill="#ff0000" fill-opacity="1"></use><g><use xlink:href="#aur4DuNAV" opacity="1" fill-opacity="0" stroke="#000000" stroke-width="1" stroke-opacity="0"></use></g></g><g><use xlink:href="#a3A6XPkLPu" opacity="1" fill="#ff0000" fill-opacity="1"></use><g><use xlink:href="#a3A6XPkLPu" opacity="1" fill-opacity="0" stroke="#000000" stroke-width="1" stroke-opacity="0"></use></g></g><g><use xlink:href="#lCrNQehN7" opacity="1" fill="#ff0000" fill-opacity="1"></use><g><use xlink:href="#lCrNQehN7" opacity="1" fill-opacity="0" stroke="#000000" stroke-width="1" stroke-opacity="0"></use></g></g><g><use xlink:href="#e8archAvE" opacity="1" fill="#ff0000" fill-opacity="1"></use><g><use xlink:href="#e8archAvE" opacity="1" fill-opacity="0" stroke="#000000" stroke-width="1" stroke-opacity="0"></use></g></g><g><use xlink:href="#b3PnPqExPj" opacity="1" fill="#ff0000" fill-opacity="1"></use><g><use xlink:href="#b3PnPqExPj" opacity="1" fill-opacity="0" stroke="#000000" stroke-width="1" stroke-opacity="0"></use></g></g></g></g></svg>